<svg width="21" height="21" viewBox="0 0 21 21" fill="none" xmlns="http://www.w3.org/2000/svg">
<path d="M0.675121 5.7126C0.849413 4.79241 1.01429 3.87222 1.51361 3.05112C2.65358 1.18714 4.4389 0.469861 6.49272 0.422672C9.29554 0.351888 12.1031 0.356606 14.9106 0.422672C16.8137 0.469861 18.5095 1.09748 19.6683 2.74911C20.4126 3.81559 20.6905 5.03307 20.7141 6.29303C20.7564 8.99226 20.7753 11.6962 20.7093 14.3954C20.6575 16.5709 19.9038 18.4254 17.8736 19.5297C16.9361 20.0393 15.9045 20.2611 14.8541 20.2752C12.0842 20.3083 9.31438 20.3366 6.54454 20.2705C4.46716 20.2233 2.663 19.5202 1.5089 17.6374C1.00957 16.821 0.844703 15.8961 0.67041 14.9759C0.675121 11.8897 0.675121 8.79879 0.675121 5.7126ZM10.7228 2.3244C9.34735 2.3244 7.97185 2.29609 6.59636 2.32912C4.44832 2.38103 3.12935 3.38617 2.73837 5.24071C2.65358 5.63238 2.59234 6.03821 2.59234 6.43932C2.57821 9.04889 2.54523 11.6585 2.59705 14.2633C2.64887 16.8587 3.95842 18.2461 6.45975 18.3405C9.2814 18.4443 12.1078 18.4349 14.9294 18.3405C17.0115 18.2697 18.2504 17.2693 18.6461 15.4666C18.7168 15.1458 18.7827 14.8154 18.7874 14.4851C18.8015 11.5122 18.9664 8.53453 18.6979 5.56631C18.5378 3.80615 17.3648 2.65945 15.6125 2.41878C13.9873 2.20171 12.3527 2.35744 10.7228 2.3244Z" fill="black"/>
<path d="M15.8952 10.3796C15.8858 13.1827 13.5634 15.4855 10.7135 15.5185C7.85418 15.5516 5.48003 13.1874 5.48945 10.3136C5.49887 7.48692 7.906 5.11801 10.7229 5.17464C13.62 5.22655 15.9046 7.52939 15.8952 10.3796ZM13.9686 10.3513C13.9733 8.56756 12.5036 7.10469 10.7041 7.09525C8.91407 7.08581 7.42551 8.5534 7.4208 10.3324C7.41609 12.1162 8.8858 13.5791 10.6853 13.5885C12.4753 13.5979 13.9638 12.1304 13.9686 10.3513Z" fill="black"/>
<path d="M16.0365 3.81085C16.7243 3.80141 17.3084 4.3724 17.3084 5.05664C17.3037 5.70786 16.7431 6.26941 16.0789 6.28829C15.3911 6.30716 14.7929 5.74561 14.7835 5.06608C14.7693 4.37712 15.3299 3.82028 16.0365 3.81085Z" fill="black"/>
</svg>
