<svg width="244" height="45" viewBox="0 0 244 45" fill="none" xmlns="http://www.w3.org/2000/svg">
    <path d="M183.408 17.0326C183.084 17.0326 182.922 16.8697 182.922 16.544C182.922 16.3811 183.084 16.2182 183.57 15.8925C184.055 15.5668 184.702 15.241 185.35 14.7524C186.482 14.101 187.777 13.2866 189.071 12.3094C190.366 11.3322 191.66 10.355 192.631 9.21498C193.602 8.07491 194.087 7.09771 194.087 5.95765C194.087 4.81758 193.278 3.84039 191.66 3.35179C190.042 2.86319 188.1 2.53745 185.673 2.53745C183.57 2.53745 181.304 2.70032 178.715 3.18892C176.288 3.51465 173.861 4.16612 171.434 4.81758C169.007 5.63192 166.903 6.44625 164.961 7.42345C163.019 8.40065 161.401 9.54071 160.269 10.6808C159.136 11.8208 158.489 13.1238 158.489 14.5896C158.489 15.7296 158.974 16.7068 159.945 17.8469C160.916 18.987 162.21 19.9642 163.829 21.1042C165.447 22.2443 167.065 23.2215 168.845 24.3616C170.786 25.5016 172.566 26.6417 174.184 27.9446C175.964 29.0847 177.259 30.3876 178.392 31.5277C179.524 32.8306 180.01 33.9707 180.01 35.4365C180.01 36.5765 179.686 37.5537 179.039 38.3681C178.392 39.1824 177.583 39.9967 176.45 40.6482C175.479 41.2997 174.346 41.7883 173.052 42.114C171.919 42.4397 170.625 42.6026 169.654 42.6026C169.006 42.6026 168.521 42.6026 167.874 42.4397C165.608 41.7883 164.476 40.6482 164.476 39.0195C164.476 37.8795 164.961 36.5765 165.77 35.4365C166.579 34.2964 167.55 33.1563 168.683 32.342C169.816 31.5277 170.625 31.0391 171.272 31.0391H171.434C171.595 31.0391 171.595 31.0391 171.757 31.2019C171.919 31.3648 171.919 31.3648 171.919 31.5277V31.6905C171.919 32.1791 171.595 32.342 171.272 32.342C170.463 32.342 169.654 32.6677 168.683 33.4821C167.712 34.2964 166.903 35.1107 166.256 36.2508C165.608 37.228 165.285 38.2052 165.285 39.0195C165.285 39.3453 165.447 39.8339 165.608 40.3225C165.77 40.8111 166.256 41.1368 166.903 41.4625C167.55 41.7883 168.359 41.9511 169.492 41.9511C170.786 41.9511 172.243 41.6254 173.699 41.1368C175.155 40.6482 176.45 39.8339 177.421 39.0195C178.392 38.0423 178.877 37.0651 178.877 35.9251C178.877 34.785 178.392 33.4821 177.421 32.5049C176.45 31.3648 175.155 30.2247 173.699 29.2476C172.081 28.1075 170.463 27.1303 168.683 25.9902C166.903 24.8502 165.123 23.7101 163.343 22.57C161.725 21.43 160.269 20.127 159.298 18.987C158.165 17.684 157.68 16.3811 157.68 15.0782C157.68 13.4495 158.327 11.9837 159.621 10.6808C160.916 9.37784 162.534 8.07491 164.638 7.09771C166.741 6.12052 169.007 5.14332 171.434 4.49185C173.861 3.67752 176.45 3.18892 178.877 2.86319C181.304 2.53745 183.57 2.37459 185.673 2.37459C188.586 2.37459 190.851 2.70032 192.307 3.51465C193.926 4.32899 194.735 5.30618 194.735 6.60912C194.735 7.74918 194.249 8.88925 193.278 10.1922C192.307 11.4951 191.013 12.6352 189.718 13.7752C188.262 14.9153 186.968 15.7296 185.835 16.544C184.702 16.7068 183.893 17.0326 183.408 17.0326Z" fill="black"/>
    <path d="M204.767 23.3844C204.929 23.5472 204.443 23.873 203.311 24.6873C202.178 25.5016 200.884 26.316 199.427 27.1303C197.809 27.9446 196.353 28.759 194.735 29.5733C193.117 30.2247 191.822 30.5505 190.851 30.5505C190.528 30.5505 190.366 30.5505 190.042 30.3876C189.557 30.2247 189.233 29.899 188.909 29.4104C188.748 28.9218 188.586 28.4332 188.586 27.9446C188.586 26.4788 189.071 25.013 189.88 23.5472C190.689 22.0814 191.822 20.7785 192.955 19.6384C194.249 18.6612 195.382 18.0098 196.353 18.0098C196.838 18.0098 197.324 18.1726 197.647 18.4984C197.971 18.8241 198.133 19.3127 198.133 19.8013C198.133 20.2899 197.971 20.7785 197.809 21.43C197.485 21.9186 197.324 22.4072 197 22.7329C196.676 23.0586 196.353 23.2215 196.191 23.2215H196.029C196.029 23.2215 196.029 23.2215 195.867 23.0586C195.867 22.8958 195.706 22.8958 195.706 22.7329C195.706 22.4072 195.867 22.0814 196.353 21.5928C196.676 21.2671 196.838 20.9414 197.162 20.6156C197.324 20.2899 197.485 19.8013 197.485 19.3127V19.1498C197.485 18.987 197.485 18.8241 197.324 18.6612C197.162 18.4984 197 18.4984 196.838 18.4984H196.676C195.706 18.4984 194.735 18.987 193.602 20.127C192.469 21.2671 191.498 22.57 190.689 24.0358C189.88 25.5016 189.557 26.8046 189.557 28.1075C189.557 28.759 189.718 29.2475 190.042 29.4104C190.366 29.5733 190.689 29.7362 191.175 29.7362C192.793 29.5733 194.573 28.9218 196.838 27.7818C199.104 26.6417 201.045 25.5016 202.663 24.3616C203.796 23.7101 204.605 23.3844 204.767 23.3844Z" fill="black"/>
    <path d="M220.463 23.3844C220.625 23.3844 220.625 23.5472 220.625 23.5472C220.625 23.5472 220.301 23.873 219.492 24.1987C218.683 24.5244 217.712 25.013 216.579 25.5016C215.447 25.8274 214.314 26.1531 213.343 26.1531C212.21 26.1531 211.401 25.8274 210.916 25.3388C210.43 24.6873 210.107 23.873 210.107 22.7329C210.107 22.57 209.945 22.4072 209.783 22.4072C209.621 22.4072 209.298 22.57 208.812 22.8958C208.489 23.2215 208.165 23.5472 208.003 24.0358C207.68 24.6873 207.518 24.8502 207.356 24.8502C207.356 24.8502 207.356 24.8502 207.356 24.6873C207.356 24.5244 207.356 24.5244 207.356 24.5244V24.3616C207.356 24.3616 207.194 24.3616 207.032 24.5244C206.871 24.6873 206.709 24.8502 206.547 25.013C206.062 25.3388 205.738 25.6645 205.252 25.9902C204.767 26.316 204.443 26.4788 204.12 26.4788C203.958 26.4788 203.796 26.316 203.634 26.1531C203.473 25.9902 203.473 25.8274 203.473 25.6645V25.5016C203.473 25.013 203.634 24.5244 204.12 23.7101C204.605 22.8958 205.091 22.2443 205.738 21.7557C206.385 21.1042 206.871 20.9414 207.518 20.9414C207.841 20.9414 208.165 21.1042 208.327 21.2671C208.489 21.43 208.489 21.7557 208.651 21.9186C208.651 22.0814 208.651 22.0814 208.651 22.0814C208.651 22.0814 208.812 22.0814 208.974 21.9186C209.136 21.7557 209.298 21.5928 209.621 21.5928C209.783 21.43 210.107 21.43 210.269 21.43C210.592 21.43 210.916 21.5928 210.916 21.9186C211.078 22.2443 211.078 22.57 211.24 22.8958C211.24 23.2215 211.401 23.7101 211.563 24.0358C211.725 24.3616 211.887 24.8502 212.21 25.013C212.534 25.3388 213.019 25.3388 213.667 25.3388C214.476 25.3388 215.447 25.1759 216.418 24.8502C217.388 24.5244 218.197 24.1987 218.845 23.873C219.654 23.5472 220.139 23.3844 220.463 23.3844ZM206.385 23.7101C206.871 23.3844 207.032 23.0586 207.194 22.8958C207.356 22.7329 207.356 22.57 207.356 22.4072C207.356 22.2443 207.356 22.0814 207.356 22.0814C207.356 22.0814 207.356 22.0814 207.356 21.9186C207.356 21.9186 207.356 21.9186 207.194 21.9186C207.032 21.9186 206.709 22.0814 206.547 22.2443C206.223 22.57 206.062 22.7329 205.738 23.2215C205.414 23.5472 205.252 23.873 205.091 24.1987C204.929 24.5244 204.767 24.6873 204.767 24.6873C205.091 24.8502 205.576 24.5244 206.385 23.7101Z" fill="black"/>
    <path d="M219.977 27.456C219.977 27.456 220.301 27.2932 220.625 26.8046C220.948 26.316 221.272 25.8274 221.757 25.1759C222.405 24.1987 223.214 23.2215 223.861 22.2443C224.67 21.2671 225.317 20.2899 226.126 19.4756C226.773 18.6612 227.259 18.3355 227.583 18.3355C227.744 18.3355 227.906 18.4984 227.906 18.987C227.906 19.1498 227.906 19.1498 227.906 19.3127C227.906 19.4756 227.906 19.8013 227.906 20.2899C227.906 21.5928 228.23 22.4072 228.715 23.2215C229.201 23.873 229.848 24.1987 230.819 24.1987C231.304 24.1987 231.951 24.1987 232.437 24.0358C232.922 23.873 233.408 23.7101 233.893 23.7101C234.217 23.5472 234.54 23.5472 234.702 23.5472C234.864 23.5472 235.026 23.5472 235.026 23.7101C235.026 23.873 234.702 23.873 234.217 24.0358C233.731 24.1987 233.084 24.3616 232.275 24.5244C231.466 24.6873 230.819 24.8502 230.333 24.8502C229.524 24.8502 228.715 24.6873 228.23 24.1987C227.744 23.873 227.259 23.2215 227.097 22.7329C226.935 22.0814 226.773 21.5928 226.773 20.9414C226.773 20.4528 226.773 19.9642 226.935 19.6384C226.773 19.6384 226.612 19.9642 225.964 20.7785C225.479 21.5928 224.832 22.4072 224.023 23.5472C223.052 25.013 221.919 26.4788 220.948 27.7818C219.977 29.0847 219.33 29.7362 219.006 29.7362H218.845C218.845 29.7362 218.683 29.7361 218.683 29.5733C218.521 29.4104 218.521 29.2476 218.521 28.9218C218.521 28.2704 218.683 27.456 219.006 26.316C219.33 25.1759 219.816 24.0358 220.139 23.0586C220.625 22.0814 220.948 21.5928 221.11 21.5928C221.272 21.5928 221.272 21.5928 221.434 21.7557L221.595 21.9186C221.595 22.0814 221.434 22.57 221.272 23.3844C220.948 24.1987 220.786 24.8502 220.463 25.6645C220.301 26.1531 220.139 26.6417 219.977 27.1303C220.139 27.1303 219.977 27.2932 219.977 27.456Z" fill="black"/>
    <path d="M243.117 23.3844C243.278 23.5472 242.955 23.873 242.146 24.1987C241.337 24.5244 240.528 25.013 239.395 25.3388C238.262 25.8274 237.291 26.1531 236.159 26.4788C234.864 26.8046 234.217 27.1303 234.217 27.2932C234.217 27.2932 234.217 27.2932 234.379 27.456C234.54 27.6189 234.702 27.9446 235.026 28.5961C235.35 29.2476 235.35 30.3876 235.35 31.8534C235.35 33.6449 235.188 35.5993 234.702 37.5537C234.217 39.5081 233.731 41.2997 233.084 42.7655C232.437 44.2313 231.79 44.8827 231.142 44.8827C230.981 44.8827 230.819 44.8827 230.657 44.7199C230.333 44.3941 230.01 43.5798 230.01 42.2769C230.01 39.9967 230.495 37.0651 231.304 33.4821C232.113 29.7362 233.246 26.1531 234.379 22.4072C235.511 18.6612 236.806 15.5668 238.1 13.1238C239.395 10.5179 240.366 9.21498 241.013 9.21498C241.175 9.21498 241.175 9.21498 241.337 9.37784C241.498 9.37784 241.498 9.70358 241.498 9.86644C241.498 10.6808 241.175 11.8208 240.366 13.4495C239.557 15.0782 238.586 16.8697 237.291 18.8241C236.968 19.3127 236.644 19.9642 236.32 20.7785C235.997 21.5928 235.673 22.4072 235.511 23.2215C235.188 24.0358 235.026 24.6873 234.864 25.3388C234.702 25.9902 234.702 26.1531 234.702 26.1531C234.702 26.1531 234.702 26.1531 234.702 26.316C234.702 26.316 235.188 26.1531 235.997 25.9902C236.806 25.8274 237.939 25.3388 239.071 25.013C240.204 24.5244 241.337 24.0358 242.469 23.3844C242.631 23.3844 242.793 23.3844 243.117 23.3844ZM234.864 31.3648C234.864 30.7134 234.864 30.2248 234.702 29.899C234.702 29.5733 234.54 29.2476 234.54 29.0847C234.379 28.9218 234.379 28.759 234.217 28.5961L234.055 28.4332C233.893 28.4332 233.731 29.0847 233.408 30.2248C233.084 31.3648 232.761 32.8306 232.437 34.6221C232.113 36.2508 231.79 38.0423 231.466 39.671C231.142 41.2997 231.142 42.6026 231.142 43.4169C231.142 43.5798 231.142 43.9055 231.142 44.0684C231.142 44.2313 231.304 44.3941 231.304 44.3941H231.466C231.951 44.3941 232.275 43.5798 232.922 42.114C233.408 40.6482 233.893 38.8567 234.379 36.7394C234.702 34.785 234.864 32.9935 234.864 31.3648ZM240.689 10.8436C240.528 10.8436 240.366 11.1694 240.042 11.8208C239.718 12.4723 239.395 13.1238 239.071 13.9381C238.748 14.7524 238.424 15.5668 238.1 16.2182C237.777 16.8697 237.777 17.1954 237.615 17.3583C237.777 17.0326 238.1 16.8697 238.262 16.544C238.586 15.8925 239.071 15.241 239.395 14.4267C239.718 13.6124 240.042 12.9609 240.366 12.3094C240.689 11.4951 240.689 11.0065 240.689 10.8436Z" fill="black"/>
    <path d="M30.1715 1.07166C29.8479 0.583057 29.3625 0.257324 28.877 0.257324C28.2298 0.257324 27.7444 0.583057 27.4207 1.23452L21.2719 15.241L15.2848 1.07166C14.9612 0.583057 14.4757 0.257324 13.8285 0.257324C13.1813 0.257324 12.6958 0.583057 12.3722 1.07166L0.559892 29.2476C0.398079 29.4104 0.236267 29.5733 0.236267 29.899C0.236267 30.8762 0.883516 31.5277 1.85439 31.5277C2.50164 31.5277 2.98708 31.202 3.3107 30.7134L13.8285 5.79478L19.6537 19.3127L15.4466 29.2476C15.2848 29.4104 15.2848 29.7362 15.2848 29.899C15.2848 30.8762 15.9321 31.5277 16.9029 31.5277C17.5502 31.5277 18.0356 31.202 18.3592 30.7134L21.4337 23.3844L24.5081 30.7134C24.8317 31.202 25.3172 31.5277 25.9644 31.5277C26.9353 31.5277 27.5825 30.8762 27.5825 29.899C27.5825 29.5733 27.5825 29.4104 27.4207 29.2476L23.2136 19.3127L29.0389 5.79478L39.5567 30.5505C39.8803 31.0391 40.3657 31.3648 41.013 31.3648C41.9838 31.3648 42.6311 30.7134 42.6311 29.7362V29.5733L30.1715 1.07166Z" fill="#020202"/>
    <path d="M64.1521 1.07166C63.9903 0.583057 63.3431 0.257324 62.6958 0.257324C62.0486 0.257324 61.5631 0.583057 61.2395 1.07166L49.2654 29.2476C49.1036 29.4104 49.1036 29.7362 49.1036 29.899C49.1036 30.8762 49.7508 31.5277 50.7217 31.5277C51.369 31.5277 51.8544 31.202 52.178 30.7134L62.6958 5.95765L73.2136 30.7134C73.5372 31.202 74.0227 31.5277 74.6699 31.5277C75.6408 31.5277 76.288 30.8762 76.288 29.899C76.288 29.5733 76.288 29.4104 76.1262 29.2476L64.1521 1.07166Z" fill="#020202"/>
    <path d="M106.223 0.257324C105.252 0.257324 104.605 0.90879 104.605 1.88599V25.013L87.6149 0.90879C87.2913 0.420191 86.8058 0.257324 86.3204 0.257324C85.3495 0.257324 84.7023 0.90879 84.7023 1.88599V30.0619C84.7023 31.0391 85.3495 31.6905 86.3204 31.6905C87.1295 31.6905 87.9385 31.0391 87.9385 30.0619V6.77198L105.091 30.8762C105.414 31.3648 105.9 31.5277 106.385 31.5277C107.356 31.5277 108.003 30.8762 108.003 29.899V1.72312C107.841 0.90879 107.194 0.257324 106.223 0.257324Z" fill="#020202"/>
    <path d="M143.117 29.2476L131.304 1.07166C130.981 0.583057 130.495 0.257324 129.848 0.257324C129.201 0.257324 128.715 0.583057 128.392 1.07166L116.417 29.2476C116.256 29.4104 116.256 29.7362 116.256 29.899C116.256 30.8762 116.903 31.5277 117.874 31.5277C118.521 31.5277 119.006 31.202 119.33 30.7134L129.848 5.95765L140.366 30.7134C140.689 31.202 141.175 31.5277 141.822 31.5277C142.793 31.5277 143.44 30.8762 143.44 29.899C143.44 29.5733 143.278 29.4104 143.117 29.2476Z" fill="#020202"/>
</svg>
